Jump_normalized_Motion_pl16
version=1
nRows=8
nColumns=43
inDegrees=yes
endheader
time		pelvis_tilt		pelvis_list		pelvis_rotation		pelvis_tx		pelvis_ty		pelvis_tz		hip_flexion_r		hip_adduction_r		hip_rotation_r		knee_angle_r		ankle_angle_r		subtalar_angle_r		mtp_angle_r		hip_flexion_l		hip_adduction_l		hip_rotation_l		knee_angle_l		ankle_angle_l		subtalar_angle_l		mtp_angle_l		lumbar_extension		lumbar_bending		lumbar_rotation		neck_flexion		neck_lateral_bending		neck_rotation		arm_flex_r		arm_add_r		arm_rot_r		elbow_flex_r		pro_sup_r		wrist_flex_r		wrist_dev_r		hand_finger_flex_r		arm_flex_l		arm_add_l		arm_rot_l		elbow_flex_l		pro_sup_l		wrist_flex_l		wrist_dev_l		hand_finger_flex_l		
0.377500		5.375797		-23.987054		90.547898		0.030849		1.880972		1.825496		74.243069		4.606826		-3.443223		-113.055694		25.164531		-3.162169		12.786345		76.491026		-8.558916		1.569455		-117.872278		20.861554		3.478205		14.779870		-43.835757		2.869034		5.088193		37.363485		-1.475588		0.029903		64.021664		-17.206813		4.640175		78.295219		97.035196		-1.348008		2.390271		32.289832		62.688176		-19.775561		4.738301		84.426238		90.498172		-10.518808		1.080807		31.802935		
0.381061		5.376875		-24.267500		90.507929		0.030771		1.882872		1.822165		74.000349		4.618317		-3.417758		-112.675033		25.150576		-3.098994		12.863186		76.223434		-8.607871		1.505448		-117.491577		20.833512		3.496808		14.802308		-43.327374		2.873835		5.065380		37.134212		-1.522238		0.050276		65.028689		-17.146709		4.898131		78.767531		97.058212		-1.361097		2.385827		32.307507		63.855390		-19.738624		5.010226		84.837910		90.528218		-10.559328		1.068921		31.660129		
0.384621		5.264697		-24.440809		90.374171		0.030605		1.885095		1.818822		73.635546		4.608570		-3.264861		-112.272283		25.142006		-2.958460		13.089574		75.776899		-8.636775		1.312143		-117.049797		20.782128		3.514176		14.870800		-42.950939		2.767162		5.055777		36.971409		-1.572761		0.057708		66.214059		-17.332837		5.485575		79.189483		97.087924		-1.486657		2.592301		32.370000		65.272371		-19.966398		5.780694		85.119700		90.584190		-10.706055		1.194703		31.249829		
0.388182		5.230646		-24.737578		90.317645		0.030522		1.886976		1.815347		73.390363		4.607691		-3.215271		-111.879087		25.140539		-2.905456		13.167018		75.494008		-8.688779		1.197608		-116.638951		20.769436		3.524185		14.896863		-42.408172		2.739394		5.021093		36.705366		-1.604051		0.062422		67.191125		-17.231482		5.682766		79.623646		97.064737		-1.548753		2.633555		32.401534		66.404013		-19.909032		6.030654		85.528144		90.586819		-10.730896		1.192014		31.105987		
0.391742		5.063818		-24.999959		90.159317		0.030406		1.888954		1.812031		73.129993		4.591137		-3.015243		-111.486942		25.163471		-2.821111		13.343548		75.133668		-8.708493		0.938620		-116.186602		20.757395		3.517482		14.961072		-41.896650		2.579943		4.971561		36.464315		-1.632803		0.055725		68.379580		-17.356140		6.234913		79.943003		97.015677		-1.695704		2.964119		32.535330		67.834992		-20.145563		6.808010		85.744869		90.618293		-10.714615		1.379959		30.812653		
0.395303		5.022434		-25.322435		90.091458		0.030295		1.890750		1.808441		72.896114		4.582708		-2.961629		-111.081421		25.167295		-2.785672		13.408490		74.860355		-8.751427		0.805846		-115.769333		20.751125		3.518817		14.987500		-41.309026		2.549178		4.936666		36.163092		-1.644228		0.055858		69.342589		-17.223618		6.395923		80.374008		96.956098		-1.771379		3.046248		32.596084		68.939182		-20.082349		7.036766		86.130701		90.604092		-10.706467		1.397943		30.697944		
0.398864		4.935397		-25.650107		89.991390		0.030214		1.892575		1.804985		72.680412		4.577958		-2.849561		-110.666774		25.204842		-2.762728		13.501473		74.583361		-8.777450		0.628954		-115.330224		20.754484		3.508409		15.028277		-40.706042		2.470228		4.895192		35.864072		-1.662151		0.066635		70.474324		-17.252144		6.817961		80.679968		96.913797		-1.815423		3.329393		32.720932		70.273301		-20.229514		7.632342		86.340676		90.641918		-10.608224		1.552478		30.562112		
0.402424		4.544688		-25.716822		89.671538		0.030255		1.895057		1.801161		72.156354		4.543119		-2.426123		-110.246767		25.211860		-2.693904		13.871162		73.851417		-8.787801		0.109532		-114.773799		20.763187		3.413311		15.226896		-40.421137		2.040215		4.768490		35.658296		-1.499273		0.021989		71.641834		-17.330783		7.262228		81.159859		96.360068		-2.348864		4.491527		33.230422		71.831471		-20.512890		8.611485		86.527129		90.274454		-10.781463		1.928301		29.910805		
